<?xml version="1.0" encoding="utf-8"?>
<!-- Generator: Adobe Illustrator 22.0.1, SVG Export Plug-In . SVG Version: 6.00 Build 0)  -->
<svg version="1.1" id="logo-devparana" xmlns="http://www.w3.org/2000/svg" xmlns:xlink="http://www.w3.org/1999/xlink" x="0px"
	 y="0px" viewBox="0 0 300 300" style="enable-background:new 0 0 300 300;" xml:space="preserve">
<style type="text/css">
	.st0{fill:#15A04B;}
	.st1{fill:#FEFEFE;}
</style>
<g>
	<path class="st0" d="M282.6,167L167,282.6c-9.4,9.4-24.6,9.4-34,0L17.4,167c-9.4-9.4-9.4-24.6,0-34L133,17.4c9.4-9.4,24.6-9.4,34,0
		L282.6,133C292,142.4,292,157.6,282.6,167z"/>
	<path class="st1" d="M242.3,115.9c0-3.7-1.4-7.2-4-9.9c-2.7-2.7-6.2-4.2-10-4.2c-7.7,0-14,6.3-14,14c0,6.2,4.1,11.6,9.8,13.4v26
		c0,14.8-9.3,22.9-30.1,26.2c-2.8-5.5-8.8-9-18.2-10.4l-0.1,0c-7.4-0.9-13-3.1-17-6.4v-6.9c4-3.5,9.6-5.7,17.2-6.6l0.1,0
		c13.2-2,19.9-8.2,19.9-18.4v-15.2c6.1-1.5,10.7-7,10.7-13.6c0-7.8-6.3-14.1-14-14.1c-7.7,0-14,6.3-14,14.1
		c0,6.7,4.8,12.4,11.1,13.7v15.1c0,7-4.4,10.6-14.6,12.2c-6.6,0.8-12,2.5-16.3,5.1v-46c5.1-3,8.5-8.5,8.5-14.8
		c0-9.5-7.7-17.2-17.2-17.2c-9.5,0-17.2,7.7-17.2,17.2c0,6.3,3.4,11.8,8.5,14.8v39.3c-3.9-1.9-8.5-3.2-14-3.9
		c-12.8-1.9-14.4-7.4-14.4-12v-10.7c6.2-1.4,10.9-7,10.9-13.7c0-7.7-6.3-14-14-14s-14,6.3-14,14c0,6.7,4.7,12.2,10.9,13.7v10.7
		c0,10.1,6.6,16.3,19.8,18.2c6.3,0.9,11.2,2.4,14.9,4.9v22.1c-8.8-5.6-19.9-9.3-33.7-11c-21.3-3.2-30.8-11.3-30.8-26.3v-6
		c5.6-1.9,9.6-7.1,9.6-13.3c0-7.7-6.3-14-14-14s-14,6.3-14,14c0,6.2,4,11.5,9.6,13.3v6c0,11,4.1,19.6,12.2,25.6
		c6.2,4.6,14.8,7.7,26.2,9.4l0.1,0c15.3,2,26.7,6.3,34.9,13.2V288c5.6,2.2,11.8,2.2,17.5,0v-46.4c4-3.4,9.5-5.5,17-6.4l0.1,0
		c13.2-2,19.9-8.2,19.9-18.4v-2.3c4.1-1.3,7.1-5.2,7.1-9.7s-3-8.4-7.1-9.7v-4.9c10.8-1.8,19-4.8,25-9.3c8.1-6,12.2-14.6,12.2-25.6
		v-26.1C238.4,127.2,242.3,122,242.3,115.9z M183.7,103.9c0-4.9,4-8.9,8.8-8.9c4.9,0,8.8,4,8.8,8.9c0,4.9-4,8.8-8.8,8.8
		C187.7,112.7,183.7,108.7,183.7,103.9z M100.9,103c0-4.9,4-8.8,8.8-8.8s8.8,4,8.8,8.8s-4,8.8-8.8,8.8S100.9,107.8,100.9,103z
		 M63.5,115.8c0-4.9,4-8.8,8.8-8.8s8.8,4,8.8,8.8s-4,8.8-8.8,8.8S63.5,120.7,63.5,115.8z M174.9,177.2c6.1,0.9,10.1,2.6,12.3,5.3
		c-11.4,2.1-20.9,5.6-28.5,10.6v-20.9C163.1,174.7,168.4,176.4,174.9,177.2z M150,77.1c6.6,0,12,5.4,12,12c0,6.6-5.4,12.1-12,12.1
		c-6.6,0-12-5.4-12-12C138,82.5,143.4,77.1,150,77.1z M174.9,229c-6.5,0.8-11.8,2.5-16.1,5v-29.8c7.4-6.5,17.4-10.8,30.7-13.1v4
		c-4.1,1.3-7.1,5.2-7.1,9.7c0,4.6,3,8.4,7.1,9.7v2.3C189.4,223.8,185.1,227.4,174.9,229z M228.3,124.7c-4.9,0-8.8-4-8.8-8.8
		s4-8.8,8.8-8.8c2.4,0,4.6,0.9,6.3,2.6c1.7,1.7,2.5,3.9,2.5,6.2C237.1,120.7,233.2,124.7,228.3,124.7z"/>
</g>
</svg>
