<?xml version="1.0" encoding="utf-8"?>
<!-- Generator: Adobe Illustrator 22.0.1, SVG Export Plug-In . SVG Version: 6.00 Build 0)  -->
<svg version="1.1" id="logo-devparana" xmlns="http://www.w3.org/2000/svg" xmlns:xlink="http://www.w3.org/1999/xlink" x="0px"
	 y="0px" viewBox="0 0 32 32" style="enable-background:new 0 0 32 32;" xml:space="preserve">
<style type="text/css">
	.st0{fill:#FEFEFE;}
</style>
<g id="logo">
	<path id="background" d="M30.9,17.9l-13,13c-1.1,1.1-2.8,1.1-3.8,0l-13-13C0,16.8,0,15.1,1.1,14L14,1C15.1,0,16.8,0,17.9,1l13,13
		C31.9,15.1,31.9,16.8,30.9,17.9z"/>
	<path id="branchs" class="st0" d="M26.3,12.1c0-0.4-0.2-0.8-0.5-1.1c-0.3-0.3-0.7-0.5-1.1-0.5c-0.9,0-1.6,0.7-1.6,1.6
		c0,0.7,0.5,1.3,1.1,1.5v2.9c0,1.7-1,2.6-3.4,2.9c-0.3-0.6-1-1-2-1.2h0c-0.8-0.1-1.5-0.3-1.9-0.7v-0.8c0.4-0.4,1.1-0.6,1.9-0.7h0
		c1.5-0.2,2.2-0.9,2.2-2.1v-1.7c0.7-0.2,1.2-0.8,1.2-1.5c0-0.9-0.7-1.6-1.6-1.6c-0.9,0-1.6,0.7-1.6,1.6c0,0.8,0.5,1.4,1.2,1.5V14
		c0,0.8-0.5,1.2-1.6,1.4c-0.7,0.1-1.3,0.3-1.8,0.6v-5.2c0.6-0.3,1-1,1-1.7C17.9,8,17,7.2,16,7.2S14,8,14,9.1c0,0.7,0.4,1.3,1,1.7
		v4.4c-0.4-0.2-1-0.4-1.6-0.4c-1.4-0.2-1.6-0.8-1.6-1.4v-1.2c0.7-0.2,1.2-0.8,1.2-1.5c0-0.9-0.7-1.6-1.6-1.6c-0.9,0-1.6,0.7-1.6,1.6
		c0,0.7,0.5,1.4,1.2,1.5v1.2c0,1.1,0.7,1.8,2.2,2c0.7,0.1,1.3,0.3,1.7,0.5v2.5c-1-0.6-2.2-1-3.8-1.2c-2.4-0.4-3.5-1.3-3.5-3v-0.7
		c0.6-0.2,1.1-0.8,1.1-1.5c0-0.9-0.7-1.6-1.6-1.6s-1.6,0.7-1.6,1.6c0,0.7,0.5,1.3,1.1,1.5v0.7c0,1.2,0.5,2.2,1.4,2.9
		c0.7,0.5,1.7,0.9,2.9,1.1h0c1.7,0.2,3,0.7,3.9,1.5v11.8c0.6,0.2,1.3,0.2,2,0v-5.2c0.4-0.4,1.1-0.6,1.9-0.7h0
		c1.5-0.2,2.2-0.9,2.2-2.1v-0.3c0.5-0.1,0.8-0.6,0.8-1.1c0-0.5-0.3-0.9-0.8-1.1v-0.6c1.2-0.2,2.1-0.5,2.8-1c0.9-0.7,1.4-1.6,1.4-2.9
		v-2.9C25.9,13.4,26.3,12.8,26.3,12.1z M19.7,10.8c0-0.5,0.4-1,1-1c0.5,0,1,0.4,1,1c0,0.5-0.4,1-1,1C20.2,11.8,19.7,11.3,19.7,10.8z
		 M10.4,10.7c0-0.5,0.4-1,1-1c0.5,0,1,0.4,1,1s-0.4,1-1,1C10.9,11.7,10.4,11.2,10.4,10.7z M6.2,12.1c0-0.5,0.4-1,1-1s1,0.4,1,1
		s-0.4,1-1,1S6.2,12.7,6.2,12.1z M18.8,19c0.7,0.1,1.1,0.3,1.4,0.6c-1.3,0.2-2.3,0.6-3.2,1.2v-2.3C17.4,18.7,18,18.9,18.8,19z
		 M16,7.8c0.7,0,1.3,0.6,1.3,1.3c0,0.7-0.6,1.4-1.3,1.4c-0.7,0-1.3-0.6-1.3-1.3C14.6,8.4,15.2,7.8,16,7.8z M18.8,24.8
		c-0.7,0.1-1.3,0.3-1.8,0.6V22c0.8-0.7,2-1.2,3.5-1.5V21c-0.5,0.1-0.8,0.6-0.8,1.1c0,0.5,0.3,0.9,0.8,1.1v0.3
		C20.4,24.2,19.9,24.7,18.8,24.8z M24.8,13.1c-0.5,0-1-0.4-1-1s0.4-1,1-1c0.3,0,0.5,0.1,0.7,0.3c0.2,0.2,0.3,0.4,0.3,0.7
		C25.7,12.7,25.3,13.1,24.8,13.1z"/>
</g>
</svg>
